PathFileType	4	(X/Y/Z)	./resultDataOpenSim/trcMotMarkerGrf/sub10/qtm-01-05.trc
DataRate	CameraRate	NumFrames	NumMarkers	Units	OrigDataRate	OrigDataStartFrame	OrigNumFrames
250.000000	250.000000	14	24	m	250.000000	366	487
Frame#	Time	L.Toe.Tip			R.Toe.Tip			L.Ankle.Lat			R.Ankle.Lat			L.Ankle.Med			R.Ankle.Med			L.Heel			R.Heel			L.Knee.Lat			R.Knee.Lat			L.Knee.Med			R.Knee.Med			L.Thigh.Upper			R.Thigh.Upper			L.ASIS			R.ASIS			V.Sacral			L.Acromium			R.Acromium			C7			L.Elbow			R.Elbow			L.Wrist.Lat			R.Wrist.Lat
		X1	Y1	Z1	X2	Y2	Z2	X3	Y3	Z3	X4	Y4	Z4	X5	Y5	Z5	X6	Y6	Z6	X7	Y7	Z7	X8	Y8	Z8	X9	Y9	Z9	X10	Y10	Z10	X11	Y11	Z11	X12	Y12	Z12	X13	Y13	Z13	X14	Y14	Z14	X15	Y15	Z15	X16	Y16	Z16	X17	Y17	Z17	X18	Y18	Z18	X19	Y19	Z19	X20	Y20	Z20	X21	Y21	Z21	X22	Y22	Z22	X23	Y23	Z23	X24	Y24	Z24

366	1.46	0.86534011	0.055598004	-0.15608761	0.79305355	0.037866966	0.014180649	0.74616288	0.11701404	-0.15395557	0.65281463	0.060399427	0.055251046	0.77756252	0.12860625	-0.075802029	0.66987451	0.086029435	-0.02956538	0.68436804	0.1026943	-0.097347356	0.59973479	0.038065793	0.012617727	0.91694934	0.4643219	-0.18388145	0.74915507	0.45164878	0.094218141	0.94225663	0.438229	-0.06635344	0.7573543	0.45533916	-0.033889079	0.81820563	0.83327791	-0.23227501	0.78120096	0.8689087	0.14716468	0.86252113	0.9501801	-0.16559748	0.85683549	0.96158786	0.07736997	0.65947204	0.96222121	-0.053628305	0.75490095	1.4217172	-0.22345018	0.74058618	1.419724	0.10500339	0.66272283	1.4418126	-0.066851596	0.68525251	1.0828437	-0.25055659	0.68678606	1.0755826	0.1737495	0.79861292	0.87181738	-0.29389178	0.83616683	0.8894175	0.23495911
367	1.464	0.8849083	0.055286901	-0.15677973	0.79312369	0.037925953	0.014178862	0.76385754	0.11316824	-0.15396051	0.6528094	0.060591394	0.05498371	0.79460722	0.12531066	-0.076290545	0.66990572	0.086179202	-0.029895983	0.703018	0.096795698	-0.097153608	0.59974514	0.038165748	0.012196565	0.92580266	0.46517426	-0.18403415	0.75085201	0.45146805	0.093997025	0.95177831	0.43930809	-0.066588453	0.7594567	0.45483033	-0.034233607	0.82524529	0.83357747	-0.2327303	0.78471367	0.86862719	0.14676557	0.86882777	0.95015106	-0.16521768	0.86112626	0.96113289	0.077827926	0.66426139	0.9620819	-0.058182716	0.76059351	1.4214872	-0.22345134	0.7460638	1.4195426	0.10501067	0.66832757	1.4416359	-0.066872966	0.68956483	1.0832107	-0.25063202	0.69523437	1.0747584	0.17461741	0.80067148	0.87107892	-0.29486708	0.84781553	0.89090361	0.23476079
368	1.468	0.90451114	0.055099549	-0.15739901	0.79325343	0.038004221	0.014181273	0.78165165	0.10937868	-0.15399631	0.65278821	0.060789128	0.054713841	0.81213103	0.12230568	-0.076513268	0.6700848	0.086304685	-0.030180746	0.72173898	0.091039683	-0.097057062	0.59975118	0.038287555	0.011772882	0.93455108	0.46594461	-0.18418102	0.75261259	0.45126494	0.093779275	0.96152503	0.44029909	-0.0669613	0.76162303	0.45431664	-0.034517078	0.83222665	0.83381514	-0.23316313	0.78815414	0.86832231	0.14636017	0.8751287	0.95005879	-0.16489482	0.86540775	0.96062444	0.078241907	0.66891062	0.96194149	-0.063585827	0.76632158	1.42119	-0.22345376	0.75153097	1.4192987	0.10501672	0.67393656	1.4414	-0.066917994	0.69369662	1.0834754	-0.25043762	0.70374622	1.0738825	0.17545162	0.80257169	0.87034655	-0.29571823	0.85946331	0.89240864	0.23451299
369	1.472	0.92405133	0.055031278	-0.15791622	0.79338861	0.038076813	0.014200062	0.79958673	0.10567579	-0.1540612	0.65275735	0.06098849	0.054427308	0.83025102	0.1196015	-0.076388622	0.67034307	0.086414211	-0.030436419	0.74045732	0.085525645	-0.097050195	0.59969027	0.038453316	0.01123204	0.94320824	0.4666035	-0.18434749	0.7544118	0.45103206	0.093544222	0.97123167	0.44120409	-0.067379649	0.76411396	0.4537787	-0.034574865	0.83922127	0.83398453	-0.23357975	0.79152196	0.86797536	0.14592712	0.88137513	0.94991607	-0.16462114	0.8696761	0.96006251	0.078607535	0.67369703	0.96172013	-0.068157015	0.77208319	1.4208244	-0.22345676	0.7569887	1.418994	0.10501981	0.6795581	1.4410959	-0.066984905	0.69776944	1.0836411	-0.25028412	0.71222806	1.0729898	0.17622907	0.80445325	0.86960663	-0.29652624	0.87110343	0.89392973	0.23421725
370	1.476	0.94350413	0.055078163	-0.15833607	0.79349015	0.038145361	0.01425339	0.81767412	0.10210203	-0.15414757	0.65274314	0.061160606	0.054082506	0.84864539	0.11709784	-0.076079227	0.67063894	0.086503537	-0.030677857	0.7592038	0.080277668	-0.097129796	0.59954986	0.038656289	0.01052674	0.9517776	0.46715102	-0.1845705	0.75622209	0.45075144	0.093266917	0.98057678	0.44201927	-0.06774641	0.7669197	0.45322122	-0.03443033	0.84627019	0.83408887	-0.23400015	0.79492984	0.86757231	0.14542105	0.88757476	0.94972174	-0.16437842	0.8739368	0.95944905	0.078928061	0.67872235	0.96142112	-0.071277755	0.7778728	1.4203794	-0.22346076	0.76244769	1.4186258	0.10502347	0.68519924	1.4407277	-0.067057915	0.70185351	1.0837252	-0.25016762	0.72065311	1.0721086	0.17694166	0.80651354	0.8688402	-0.29740936	0.88272499	0.89546098	0.23387824
371	1.48	0.9629077	0.055239361	-0.15868105	0.793547	0.038228807	0.014329267	0.83588213	0.098667813	-0.15425668	0.65276952	0.061274562	0.053647168	0.86694588	0.1146894	-0.075860574	0.6709331	0.086564782	-0.030936085	0.77801718	0.075257945	-0.097332271	0.59938107	0.038864432	0.009752607	0.96026483	0.4676146	-0.18483202	0.75803515	0.45041668	0.092944892	0.98948891	0.44273285	-0.068054915	0.76976923	0.45267495	-0.034275647	0.85336056	0.8341373	-0.23443632	0.79851203	0.8671147	0.14480058	0.89376399	0.94946489	-0.16415604	0.87819797	0.95878494	0.079209154	0.68385338	0.96113709	-0.073665852	0.78368558	1.4198395	-0.22347149	0.76791772	1.4181905	0.10503185	0.69086187	1.4403087	-0.067128001	0.70597207	1.0837417	-0.25007513	0.72904909	1.0712421	0.17759621	0.80877184	0.86804725	-0.29838106	0.89432416	0.89700005	0.23350008
372	1.484	0.98230138	0.055513517	-0.15896369	0.79352097	0.03831348	0.014370484	0.85417353	0.095363415	-0.15440314	0.65281709	0.061338032	0.053151056	0.8851834	0.11237433	-0.075908763	0.67119046	0.086598154	-0.031245747	0.79688834	0.070423405	-0.097710983	0.5992523	0.039047293	0.0090517481	0.9686641	0.46798843	-0.18511542	0.7598616	0.45004063	0.092593985	0.9981098	0.44333517	-0.068352566	0.77253726	0.45213414	-0.034221375	0.860457	0.83413677	-0.23488652	0.80223209	0.86659007	0.14409797	0.89996826	0.94914146	-0.16395633	0.88246684	0.95807298	0.079454009	0.68912101	0.96086191	-0.075588434	0.78951953	1.4192009	-0.22349339	0.77340287	1.4176871	0.10504632	0.69654166	1.4398461	-0.067196256	0.71010635	1.0836969	-0.25004166	0.73745511	1.0703624	0.17822631	0.81111559	0.86724144	-0.29937547	0.90589908	0.89854554	0.23308629
373	1.488	1.0017004	0.055894331	-0.15918242	0.7933866	0.038362488	0.014338415	0.87253913	0.092195394	-0.15459755	0.65283752	0.061395675	0.052662992	0.90373081	0.11023268	-0.076279011	0.67140709	0.086611515	-0.031616402	0.81580182	0.065778846	-0.098284333	0.5991847	0.039200264	0.0084647541	0.97695845	0.46823063	-0.18544214	0.76171334	0.44964079	0.092226395	1.0065881	0.44382467	-0.068669876	0.77519572	0.4515897	-0.034328584	0.86752484	0.83408932	-0.23533599	0.80572261	0.86593293	0.14347867	0.90621521	0.94875866	-0.16378013	0.8867483	0.95732035	0.079664602	0.69501934	0.96031384	-0.07564389	0.79537268	1.4184866	-0.22351742	0.778902	1.4171168	0.10506462	0.70223102	1.4393367	-0.06726535	0.71425715	1.0835894	-0.25005484	0.7459269	1.0694064	0.17894721	0.81346819	0.86642879	-0.30034617	0.91744331	0.90008986	0.23263976
374	1.492	1.0210993	0.056374481	-0.15933366	0.79319683	0.038367236	0.01425634	0.89100119	0.089181425	-0.15483196	0.65281233	0.061482741	0.052211694	0.92279127	0.10830952	-0.076908586	0.67160177	0.086619455	-0.032034994	0.8347879	0.061384074	-0.098999164	0.59915302	0.039337764	0.0079301177	0.98514286	0.46831354	-0.18583836	0.76359526	0.44922535	0.091843161	1.01499	0.44420354	-0.069011025	0.77754138	0.45108999	-0.034766146	0.87452045	0.83399002	-0.23575107	0.80860348	0.86508979	0.14311345	0.91253485	0.94832687	-0.16363068	0.89104331	0.95653504	0.079842106	0.70218525	0.95910364	-0.072135868	0.80124177	1.4177278	-0.22353066	0.78441005	1.4164803	0.10508308	0.70792329	1.4387734	-0.067339827	0.71844394	1.0834111	-0.25011063	0.75455929	1.0682783	0.17998292	0.81580949	0.86560361	-0.30128681	0.92894864	0.90162521	0.23216043
375	1.496	1.0404816	0.056956942	-0.15942171	0.79301562	0.038346548	0.014163336	0.90957665	0.086331041	-0.15509269	0.65275848	0.061604474	0.051771762	0.94200974	0.10654458	-0.077550396	0.67179252	0.086636629	-0.032487275	0.85392643	0.057293244	-0.09977238	0.59912919	0.039476341	0.0073774602	0.99322879	0.46823055	-0.18631397	0.76550984	0.44879415	0.091441687	1.0233159	0.44447153	-0.069378537	0.77942711	0.45067684	-0.035630436	0.88140548	0.83383276	-0.23610023	0.81114617	0.8641476	0.14290627	0.91891696	0.94785408	-0.16353096	0.89534969	0.95572001	0.079982226	0.71053226	0.95722829	-0.065923787	0.8071287	1.4169313	-0.22353286	0.78992306	1.4157814	0.10510036	0.71361461	1.4381476	-0.067424796	0.72266935	1.0831584	-0.25028213	0.76341852	1.0669166	0.18149637	0.81813194	0.86475966	-0.30221722	0.94040546	0.90315966	0.23164085
376	1.5	1.0598352	0.057660678	-0.15946155	0.79286529	0.038319945	0.014078305	0.92824113	0.083652188	-0.15538651	0.652695	0.061749566	0.05131162	0.96081829	0.10484567	-0.077935857	0.67199295	0.086667866	-0.032963616	0.8732491	0.053531749	-0.10060582	0.5991022	0.039630196	0.0067743708	1.0012301	0.46797424	-0.18686223	0.7674613	0.44834809	0.091022023	1.0315521	0.44462854	-0.069794436	0.78106853	0.45031791	-0.036707126	0.88819056	0.83361813	-0.23639576	0.81406263	0.8632664	0.14256202	0.92529889	0.94734076	-0.16350555	0.89966874	0.95487294	0.080083738	0.71894913	0.95522699	-0.060451646	0.81304025	1.4160843	-0.22352922	0.79544142	1.415027	0.10511748	0.71930166	1.437453	-0.067520876	0.72686924	1.0828388	-0.25060287	0.772409	1.0654037	0.1832938	0.82044683	0.86389554	-0.30317218	0.95180448	0.90471538	0.23106514
377	1.504	1.0791596	0.058518426	-0.15947263	0.79275437	0.038299453	0.014008805	0.94695635	0.081165244	-0.15573602	0.65263418	0.061904536	0.050820629	0.97904715	0.10319822	-0.078032498	0.67221266	0.086710549	-0.033454203	0.89263182	0.050125776	-0.10163535	0.59907409	0.039810137	0.0061237371	1.0091548	0.4675456	-0.18746176	0.76945333	0.44789265	0.09058421	1.039701	0.44468277	-0.070284005	0.78284324	0.44995311	-0.037644918	0.89493004	0.8333475	-0.23668027	0.81763173	0.86248333	0.14194615	0.93161971	0.946777	-0.16355341	0.90401328	0.95399354	0.080165035	0.72621867	0.95366772	-0.058518733	0.81897576	1.4151781	-0.2235232	0.80096514	1.4142175	0.10513615	0.7249817	1.4366925	-0.067626866	0.73080541	1.0824703	-0.25081327	0.78130599	1.0639266	0.18490022	0.82278495	0.86300992	-0.30415246	0.96314475	0.90630767	0.23041635
378	1.508	1.0984532	0.05956758	-0.15945857	0.7926814	0.038287093	0.013954106	0.96570955	0.07890146	-0.15614992	0.65258452	0.062065425	0.050302316	0.99690101	0.10166989	-0.078013692	0.67245393	0.086760108	-0.033944556	0.91195284	0.047050602	-0.10289257	0.59905139	0.040021736	0.0054455535	1.0170113	0.46698477	-0.18808963	0.77148387	0.44743202	0.090121031	1.0477708	0.44464586	-0.070844226	0.78491288	0.44955895	-0.038307345	0.90166586	0.83301384	-0.23696899	0.82159733	0.86171932	0.14114721	0.9378625	0.94615471	-0.16366483	0.90839423	0.95308386	0.080244706	0.73188116	0.95267708	-0.06066384	0.82492495	1.4142097	-0.22352094	0.80649332	1.4133469	0.10515703	0.73065733	1.4358751	-0.067740948	0.73397149	1.0820779	-0.25030575	0.78996587	1.0625963	0.1860212	0.82517052	0.86209767	-0.30509654	0.97443703	0.90793217	0.22968833
379	1.512	1.1177088	0.060837694	-0.15938606	0.79263064	0.038279371	0.013907939	0.98449981	0.076884311	-0.15661837	0.65254454	0.062240097	0.049763393	1.0146283	0.10036635	-0.078088489	0.67271319	0.086811499	-0.034412014	0.93129475	0.044198433	-0.10411221	0.5990384	0.040264851	0.0047570506	1.0248122	0.46635457	-0.18873277	0.77354305	0.44696423	0.089616996	1.0557611	0.44452016	-0.071451115	0.78719224	0.44914087	-0.038797327	0.90840152	0.83260798	-0.23724656	0.8256193	0.86091442	0.14029314	0.94404936	0.94547774	-0.16383717	0.91280109	0.95213964	0.080310895	0.73610886	0.95205296	-0.066017131	0.83088299	1.4131791	-0.22352484	0.81202909	1.4124137	0.10517844	0.73633384	1.435006	-0.067859918	0.73597682	1.0816842	-0.24865525	0.79841329	1.0613903	0.18672205	0.82760585	0.86115793	-0.30596215	0.98570101	0.90956898	0.22889469
